<svg version="1.1" viewBox="0.0 0.0 1180.6141732283465 522.5774278215223" fill="none" stroke="none" stroke-linecap="square" stroke-miterlimit="10" xmlns:xlink="http://www.w3.org/1999/xlink" xmlns="http://www.w3.org/2000/svg"><clipPath id="p.0"><path d="m0 0l1180.6141 0l0 522.57745l-1180.6141 0l0 -522.57745z" clip-rule="nonzero"/></clipPath><g clip-path="url(#p.0)"><path fill="#000000" fill-opacity="0.0" d="m0 0l1180.6141 0l0 522.57745l-1180.6141 0z" fill-rule="evenodd"/><path fill="#cfe2f3" d="m0.028871391 0.002624672l1180.5984 0l0 522.5827l-1180.5984 0z" fill-rule="evenodd"/><path fill="#c9daf8" d="m456.8517 368.28873l0 0c0 11.27182 40.040527 20.409424 89.433075 20.409424c49.392517 0 89.433044 -9.137604 89.433044 -20.409424l0 122.456665c0 11.271851 -40.040527 20.409454 -89.433044 20.409454c-49.392548 0 -89.433075 -9.137604 -89.433075 -20.409454z" fill-rule="evenodd"/><path fill="#dee8fa" d="m456.8517 368.28873l0 0c0 -11.271851 40.040527 -20.409454 89.433075 -20.409454c49.392517 0 89.433044 9.137604 89.433044 20.409454l0 0c0 11.27182 -40.040527 20.409424 -89.433044 20.409424c-49.392548 0 -89.433075 -9.137604 -89.433075 -20.409424z" fill-rule="evenodd"/><path fill="#000000" fill-opacity="0.0" d="m635.71783 368.28873l0 0c0 11.27182 -40.040527 20.409424 -89.433044 20.409424c-49.392548 0 -89.433075 -9.137604 -89.433075 -20.409424l0 0c0 -11.271851 40.040527 -20.409454 89.433075 -20.409454c49.392517 0 89.433044 9.137604 89.433044 20.409454l0 122.456665c0 11.271851 -40.040527 20.409454 -89.433044 20.409454c-49.392548 0 -89.433075 -9.137604 -89.433075 -20.409454l0 -122.456665" fill-rule="evenodd"/><path stroke="#000000" stroke-width="1.0" stroke-linejoin="round" stroke-linecap="butt" d="m635.71783 368.28873l0 0c0 11.27182 -40.040527 20.409424 -89.433044 20.409424c-49.392548 0 -89.433075 -9.137604 -89.433075 -20.409424l0 0c0 -11.271851 40.040527 -20.409454 89.433075 -20.409454c49.392517 0 89.433044 9.137604 89.433044 20.409454l0 122.456665c0 11.271851 -40.040527 20.409454 -89.433044 20.409454c-49.392548 0 -89.433075 -9.137604 -89.433075 -20.409454l0 -122.456665" fill-rule="evenodd"/><path fill="#000000" d="m520.94635 429.25116l1.625 -0.25q0.125 0.96875 0.75 1.5q0.625 0.515625 1.75 0.515625q1.125 0 1.671875 -0.453125q0.546875 -0.46875 0.546875 -1.09375q0 -0.546875 -0.484375 -0.875q-0.328125 -0.21875 -1.671875 -0.546875q-1.8125 -0.46875 -2.515625 -0.796875q-0.6875 -0.328125 -1.046875 -0.90625q-0.359375 -0.59375 -0.359375 -1.3125q0 -0.640625 0.296875 -1.1875q0.296875 -0.5625 0.8125 -0.921875q0.375 -0.28125 1.03125 -0.46875q0.671875 -0.203125 1.421875 -0.203125q1.140625 0 2.0 0.328125q0.859375 0.328125 1.265625 0.890625q0.421875 0.5625 0.578125 1.5l-1.609375 0.21875q-0.109375 -0.75 -0.640625 -1.171875q-0.515625 -0.421875 -1.46875 -0.421875q-1.140625 0 -1.625 0.375q-0.46875 0.375 -0.46875 0.875q0 0.3125 0.1875 0.578125q0.203125 0.265625 0.640625 0.4375q0.234375 0.09375 1.4375 0.421875q1.75 0.453125 2.4375 0.75q0.6875 0.296875 1.078125 0.859375q0.390625 0.5625 0.390625 1.40625q0 0.828125 -0.484375 1.546875q-0.46875 0.71875 -1.375 1.125q-0.90625 0.390625 -2.046875 0.390625q-1.875 0 -2.875 -0.78125q-0.984375 -0.78125 -1.25 -2.328125zm16.609375 -0.21875l1.6875 0.203125q-0.40625 1.484375 -1.484375 2.3125q-1.078125 0.8125 -2.765625 0.8125q-2.125 0 -3.375 -1.296875q-1.234375 -1.3125 -1.234375 -3.671875q0 -2.453125 1.25 -3.796875q1.265625 -1.34375 3.265625 -1.34375q1.9375 0 3.15625 1.328125q1.234375 1.3125 1.234375 3.703125q0 0.15625 0 0.4375l-7.21875 0q0.09375 1.59375 0.90625 2.453125q0.8125 0.84375 2.015625 0.84375q0.90625 0 1.546875 -0.46875q0.640625 -0.484375 1.015625 -1.515625zm-5.390625 -2.65625l5.40625 0q-0.109375 -1.21875 -0.625 -1.828125q-0.78125 -0.953125 -2.03125 -0.953125q-1.125 0 -1.90625 0.765625q-0.765625 0.75 -0.84375 2.015625zm9.125732 5.765625l0 -9.671875l1.46875 0l0 1.46875q0.5625 -1.03125 1.03125 -1.359375q0.484375 -0.328125 1.0625 -0.328125q0.828125 0 1.6875 0.53125l-0.5625 1.515625q-0.609375 -0.359375 -1.203125 -0.359375q-0.546875 0 -0.96875 0.328125q-0.421875 0.328125 -0.609375 0.890625q-0.28125 0.875 -0.28125 1.921875l0 5.0625l-1.625 0zm8.9158325 0l-3.6875 -9.671875l1.734375 0l2.078125 5.796875q0.328125 0.9375 0.625 1.9375q0.203125 -0.765625 0.609375 -1.828125l2.140625 -5.90625l1.6875 0l-3.65625 9.671875l-1.53125 0zm13.265625 -3.109375l1.6875 0.203125q-0.40625 1.484375 -1.484375 2.3125q-1.078125 0.8125 -2.765625 0.8125q-2.125 0 -3.375 -1.296875q-1.234375 -1.3125 -1.234375 -3.671875q0 -2.453125 1.25 -3.796875q1.265625 -1.34375 3.265625 -1.34375q1.9375 0 3.15625 1.328125q1.234375 1.3125 1.234375 3.703125q0 0.15625 0 0.4375l-7.21875 0q0.09375 1.59375 0.90625 2.453125q0.8125 0.84375 2.015625 0.84375q0.90625 0 1.546875 -0.46875q0.640625 -0.484375 1.015625 -1.515625zm-5.390625 -2.65625l5.40625 0q-0.109375 -1.21875 -0.625 -1.828125q-0.78125 -0.953125 -2.03125 -0.953125q-1.125 0 -1.90625 0.765625q-0.765625 0.75 -0.84375 2.015625zm9.125671 5.765625l0 -9.671875l1.46875 0l0 1.46875q0.5625 -1.03125 1.03125 -1.359375q0.484375 -0.328125 1.0625 -0.328125q0.828125 0 1.6875 0.53125l-0.5625 1.515625q-0.609375 -0.359375 -1.203125 -0.359375q-0.546875 0 -0.96875 0.328125q-0.421875 0.328125 -0.609375 0.890625q-0.28125 0.875 -0.28125 1.921875l0 5.0625l-1.625 0z" fill-rule="nonzero"/><path fill="#000000" d="m484.7457 450.88678q0 -4.265625 2.296875 -6.6875q2.296875 -2.421875 5.9375 -2.421875q2.375 0 4.28125 1.140625q1.921875 1.125 2.921875 3.171875q1.0 2.03125 1.0 4.609375q0 2.609375 -1.0625 4.671875q-1.046875 2.0625 -2.984375 3.125q-1.9375 1.0625 -4.171875 1.0625q-2.421875 0 -4.34375 -1.171875q-1.90625 -1.171875 -2.890625 -3.203125q-0.984375 -2.03125 -0.984375 -4.296875zm2.34375 0.046875q0 3.09375 1.671875 4.890625q1.671875 1.78125 4.1875 1.78125q2.578125 0 4.234375 -1.796875q1.65625 -1.8125 1.65625 -5.125q0 -2.09375 -0.71875 -3.65625q-0.703125 -1.578125 -2.078125 -2.4375q-1.359375 -0.859375 -3.046875 -0.859375q-2.421875 0 -4.171875 1.65625q-1.734375 1.65625 -1.734375 5.546875zm16.746094 13.09375l0 -17.21875l1.921875 0l0 1.625q0.6875 -0.953125 1.53125 -1.421875q0.859375 -0.484375 2.078125 -0.484375q1.59375 0 2.8125305 0.828125q1.21875 0.8125 1.84375 2.3125q0.625 1.5 0.625 3.28125q0 1.90625 -0.6875 3.4375q-0.6875 1.53125 -2.0000305 2.34375q-1.296875 0.8125 -2.734375 0.8125q-1.0625 0 -1.90625 -0.4375q-0.828125 -0.453125 -1.375 -1.140625l0 6.0625l-2.109375 0zm1.921875 -10.921875q0 2.40625 0.96875 3.5625q0.96875 1.140625 2.359375 1.140625q1.40625 0 2.40625 -1.1875q1.0000305 -1.1875 1.0000305 -3.6875q0 -2.375 -0.9844055 -3.5625q-0.96875 -1.1875 -2.328125 -1.1875q-1.359375 0 -2.390625 1.265625q-1.03125 1.25 -1.03125 3.65625zm19.957062 2.140625l2.171875 0.28125q-0.515625 1.90625 -1.90625 2.96875q-1.390625 1.046875 -3.5625 1.046875q-2.734375 0 -4.34375 -1.671875q-1.59375 -1.6875 -1.59375 -4.734375q0 -3.140625 1.609375 -4.875q1.625 -1.734375 4.203125 -1.734375q2.5 0 4.078125 1.703125q1.59375 1.703125 1.59375 4.78125q0 0.1875 -0.015625 0.5625l-9.28125 0q0.109375 2.046875 1.15625 3.140625q1.046875 1.09375 2.609375 1.09375q1.15625 0 1.96875 -0.609375q0.828125 -0.609375 1.3125 -1.953125zm-6.9375 -3.40625l6.953125 0q-0.140625 -1.5625 -0.796875 -2.359375q-1.0 -1.21875 -2.609375 -1.21875q-1.453125 0 -2.453125 0.984375q-0.984375 0.96875 -1.09375 2.59375zm11.753906 7.421875l0 -12.453125l1.90625 0l0 1.78125q1.375 -2.0625 3.953125 -2.0625q1.125 0 2.0625 0.40625q0.953125 0.40625 1.421875 1.0625q0.46875 0.65625 0.65625 1.5625q0.125 0.578125 0.125 2.046875l0 7.65625l-2.109375 0l0 -7.578125q0 -1.28125 -0.25 -1.921875q-0.25 -0.640625 -0.875 -1.015625q-0.625 -0.390625 -1.46875 -0.390625q-1.34375 0 -2.328125 0.859375q-0.984375 0.859375 -0.984375 3.25l0 6.796875l-2.109375 0z" fill-rule="nonzero"/><path fill="#000000" d="m544.0504 459.26178l0 -17.1875l5.5625 0q3.171875 0 4.125 0.265625q1.484375 0.390625 2.46875 1.6875q1.0 1.28125 1.0 3.34375q0 1.578125 -0.578125 2.65625q-0.5625 1.078125 -1.453125 1.703125q-0.890625 0.609375 -1.796875 0.796875q-1.25 0.25 -3.59375 0.25l-2.265625 0l0 6.484375l-3.46875 0zm3.46875 -14.28125l0 4.875l1.890625 0q2.0625 0 2.75 -0.265625q0.6875 -0.265625 1.078125 -0.84375q0.390625 -0.578125 0.390625 -1.328125q0 -0.9375 -0.546875 -1.546875q-0.546875 -0.609375 -1.390625 -0.765625q-0.625 -0.125 -2.5 -0.125l-1.671875 0zm12.5390625 14.28125l0 -17.1875l5.5625 0q3.171875 0 4.125 0.265625q1.484375 0.390625 2.46875 1.6875q1.0 1.28125 1.0 3.34375q0 1.578125 -0.578125 2.65625q-0.5625 1.078125 -1.453125 1.703125q-0.890625 0.609375 -1.796875 0.796875q-1.25 0.25 -3.59375 0.25l-2.265625 0l0 6.484375l-3.46875 0zm3.46875 -14.28125l0 4.875l1.890625 0q2.0625 0 2.75 -0.265625q0.6875 -0.265625 1.078125 -0.84375q0.390625 -0.578125 0.390625 -1.328125q0 -0.9375 -0.546875 -1.546875q-0.546875 -0.609375 -1.390625 -0.765625q-0.625 -0.125 -2.5 -0.125l-1.671875 0zm12.5234375 -2.90625l6.34375 0q2.140625 0 3.265625 0.328125q1.515625 0.453125 2.59375 1.59375q1.078125 1.125 1.640625 2.78125q0.5625 1.640625 0.5625 4.0625q0 2.109375 -0.53125 3.65625q-0.640625 1.875 -1.84375 3.03125q-0.890625 0.875 -2.4375 1.375q-1.140625 0.359375 -3.0625 0.359375l-6.53125 0l0 -17.1875zm3.46875 2.90625l0 11.390625l2.59375 0q1.453125 0 2.09375 -0.171875q0.84375 -0.203125 1.390625 -0.703125q0.5625 -0.515625 0.90625 -1.671875q0.359375 -1.15625 0.359375 -3.140625q0 -2.0 -0.359375 -3.0625q-0.34375 -1.0625 -0.984375 -1.65625q-0.625 -0.609375 -1.59375 -0.8125q-0.71875 -0.171875 -2.84375 -0.171875l-1.5625 0zm13.894531 -2.90625l6.859375 0q2.046875 0 3.046875 0.171875q1.0 0.171875 1.78125 0.71875q0.796875 0.53125 1.328125 1.4375q0.53125 0.890625 0.53125 2.0q0 1.203125 -0.65625 2.21875q-0.65625 1.0 -1.765625 1.515625q1.578125 0.453125 2.421875 1.5625q0.84375 1.09375 0.84375 2.578125q0 1.171875 -0.546875 2.28125q-0.546875 1.109375 -1.5 1.78125q-0.9375 0.65625 -2.3125 0.796875q-0.875 0.09375 -4.1875 0.125l-5.84375 0l0 -17.1875zm3.46875 2.859375l0 3.984375l2.265625 0q2.03125 0 2.515625 -0.0625q0.890625 -0.109375 1.40625 -0.609375q0.515625 -0.515625 0.515625 -1.34375q0 -0.796875 -0.453125 -1.296875q-0.4375 -0.5 -1.296875 -0.609375q-0.515625 -0.0625 -2.96875 -0.0625l-1.984375 0zm0 6.84375l0 4.59375l3.203125 0q1.875 0 2.375 -0.109375q0.78125 -0.140625 1.265625 -0.6875q0.484375 -0.546875 0.484375 -1.453125q0 -0.78125 -0.375 -1.3125q-0.375 -0.546875 -1.09375 -0.78125q-0.703125 -0.25 -3.0625 -0.25l-2.796875 0z" fill-rule="nonzero"/><path fill="#ffffff" d="m438.05466 191.1271l0 0c-2.1298218 -8.138351 4.8628235 -16.194824 18.010681 -20.750763c13.147858 -4.5559387 30.145111 -4.812332 43.779144 -0.6603699l0 0c4.8296204 -4.7319794 13.669189 -7.9990845 23.84491 -8.81308c10.175781 -0.81399536 20.492554 0.9207306 27.82965 4.6794434l0 0c4.114197 -4.2903137 12.192505 -7.1728516 21.368286 -7.624756c9.175842 -0.45188904 18.150513 1.5908203 23.73944 5.4032593l0 0c7.4328613 -4.547714 19.25879 -6.462494 30.360596 -4.915802c11.101868 1.5467072 19.485535 6.277069 21.523499 12.144272l0 0c9.106567 1.291565 16.692139 4.5749054 20.796814 9.001724c4.1047363 4.4268036 4.3259277 9.56282 0.6064453 14.081055l0 0c8.967346 6.0684814 11.065002 14.154663 5.510254 21.240921c-5.5547485 7.086258 -17.92743 12.107971 -32.500732 13.191116c-0.10272217 6.650711 -7.1175537 12.753326 -18.340698 15.955612c-11.223145 3.202301 -24.902039 3.004242 -35.76422 -0.5178375l0 0c-4.626709 7.965378 -17.649414 13.826202 -33.441772 15.050446c-15.792358 1.2242126 -31.523315 -2.4076843 -40.396484 -9.326538l0 0c-10.876678 3.410324 -23.927795 4.3927307 -36.20926 2.7256165c-12.281464 -1.6671295 -22.758759 -5.8433685 -29.06842 -11.586624l0 0c-11.1145935 0.6762848 -21.86084 -2.3179169 -26.905457 -7.4965973c-5.044647 -5.1786957 -3.3137207 -11.439438 4.333679 -15.675049l0 0c-9.91449 -3.034195 -14.97348 -9.055038 -12.538879 -14.922913c2.4346313 -5.867859 11.811127 -10.253067 23.24002 -10.8688965z" fill-rule="evenodd"/><path fill="#000000" fill-opacity="0.0" d="m427.13382 217.23257l0 0c4.6786804 1.431839 10.083649 2.0813599 15.489227 1.8613434m7.080139 21.310822c2.324585 -0.14144897 4.603119 -0.44096375 6.7768555 -0.8908386m58.49756 9.751465c-1.6350098 -1.2748566 -3.0038757 -2.6371613 -4.0833435 -4.06369m77.92441 -1.6604462l0 0c0.84350586 -1.4522095 1.3900757 -2.9468384 1.6304932 -4.458969m52.47235 -10.978241c0.109375 -7.0807037 -7.625183 -13.563873 -19.881409 -16.664795m46.871704 -17.766495c-1.9848633 2.4111023 -5.0149536 4.5499725 -8.852783 6.248886m-12.548645 -29.332306l0 0c0.3381958 0.97366333 0.49468994 1.9619598 0.4673462 2.9511871m-52.350586 -10.179352l0 0c-1.854126 1.1344299 -3.3817139 2.4021301 -4.5351562 3.7636566m-40.572998 -1.5426636l0 0c-0.98809814 1.0303955 -1.7258911 2.1207275 -2.1965332 3.2458801m-49.47876 0.88783264l0 0c2.8849792 0.8785553 5.553955 1.9359894 7.948303 3.149063m-69.737335 18.262192l0 0c0.29354858 1.1216736 0.75738525 2.2295227 1.3871155 3.3131714" fill-rule="evenodd"/><path stroke="#000000" stroke-width="1.0" stroke-linejoin="round" stroke-linecap="butt" d="m438.05466 191.1271l0 0c-2.1298218 -8.138351 4.8628235 -16.194824 18.010681 -20.750763c13.147858 -4.5559387 30.145111 -4.812332 43.779144 -0.6603699l0 0c4.8296204 -4.7319794 13.669189 -7.9990845 23.84491 -8.81308c10.175781 -0.81399536 20.492554 0.9207306 27.82965 4.6794434l0 0c4.114197 -4.2903137 12.192505 -7.1728516 21.368286 -7.624756c9.175842 -0.45188904 18.150513 1.5908203 23.73944 5.4032593l0 0c7.4328613 -4.547714 19.25879 -6.462494 30.360596 -4.915802c11.101868 1.5467072 19.485535 6.277069 21.523499 12.144272l0 0c9.106567 1.291565 16.692139 4.5749054 20.796814 9.001724c4.1047363 4.4268036 4.3259277 9.56282 0.6064453 14.081055l0 0c8.967346 6.0684814 11.065002 14.154663 5.510254 21.240921c-5.5547485 7.086258 -17.92743 12.107971 -32.500732 13.191116c-0.10272217 6.650711 -7.1175537 12.753326 -18.340698 15.955612c-11.223145 3.202301 -24.902039 3.004242 -35.76422 -0.5178375l0 0c-4.626709 7.965378 -17.649414 13.826202 -33.441772 15.050446c-15.792358 1.2242126 -31.523315 -2.4076843 -40.396484 -9.326538l0 0c-10.876678 3.410324 -23.927795 4.3927307 -36.20926 2.7256165c-12.281464 -1.6671295 -22.758759 -5.8433685 -29.06842 -11.586624l0 0c-11.1145935 0.6762848 -21.86084 -2.3179169 -26.905457 -7.4965973c-5.044647 -5.1786957 -3.3137207 -11.439438 4.333679 -15.675049l0 0c-9.91449 -3.034195 -14.97348 -9.055038 -12.538879 -14.922913c2.4346313 -5.867859 11.811127 -10.253067 23.24002 -10.8688965z" fill-rule="evenodd"/><path stroke="#000000" stroke-width="1.0" stroke-linejoin="round" stroke-linecap="butt" d="m427.13382 217.23257l0 0c4.6786804 1.431839 10.083649 2.0813599 15.489227 1.8613434m7.080139 21.310822c2.324585 -0.14144897 4.603119 -0.44096375 6.7768555 -0.8908386m58.49756 9.751465c-1.6350098 -1.2748566 -3.0038757 -2.6371613 -4.0833435 -4.06369m77.92441 -1.6604462l0 0c0.84350586 -1.4522095 1.3900757 -2.9468384 1.6304932 -4.458969m52.47235 -10.978241c0.109375 -7.0807037 -7.625183 -13.563873 -19.881409 -16.664795m46.871704 -17.766495c-1.9848633 2.4111023 -5.0149536 4.5499725 -8.852783 6.248886m-12.548645 -29.332306l0 0c0.3381958 0.97366333 0.49468994 1.9619598 0.4673462 2.9511871m-52.350586 -10.179352l0 0c-1.854126 1.1344299 -3.3817139 2.4021301 -4.5351562 3.7636566m-40.572998 -1.5426636l0 0c-0.98809814 1.0303955 -1.7258911 2.1207275 -2.1965332 3.2458801m-49.47876 0.88783264l0 0c2.8849792 0.8785553 5.553955 1.9359894 7.948303 3.149063m-69.737335 18.262192l0 0c0.29354858 1.1216736 0.75738525 2.2295227 1.3871155 3.3131714" fill-rule="evenodd"/><path fill="#000000" d="m464.6831 212.59451l0 -13.359375l2.625 0l5.453125 8.921875l0 -8.921875l2.515625 0l0 13.359375l-2.703125 0l-5.390625 -8.703125l0 8.703125l-2.5 0zm19.019806 -3.078125l2.546875 0.421875q-0.484375 1.40625 -1.546875 2.140625q-1.0625 0.734375 -2.65625 0.734375q-2.515625 0 -3.734375 -1.65625q-0.953125 -1.3125 -0.953125 -3.328125q0 -2.40625 1.25 -3.765625q1.265625 -1.359375 3.1875 -1.359375q2.15625 0 3.40625 1.421875q1.25 1.421875 1.1875 4.375l-6.40625 0q0.03125 1.140625 0.609375 1.78125q0.59375 0.625 1.484375 0.625q0.59375 0 1.0 -0.328125q0.421875 -0.328125 0.625 -1.0625zm0.15625 -2.59375q-0.03125 -1.109375 -0.578125 -1.6875q-0.546875 -0.578125 -1.328125 -0.578125q-0.84375 0 -1.390625 0.609375q-0.546875 0.609375 -0.53125 1.65625l3.828125 0zm9.063232 -4.0l0 2.03125l-1.75 0l0 3.90625q0 1.1875 0.046875 1.390625q0.046875 0.1875 0.21875 0.3125q0.1875 0.125 0.4375 0.125q0.359375 0 1.03125 -0.25l0.21875 2.0q-0.890625 0.375 -2.015625 0.375q-0.703125 0 -1.265625 -0.234375q-0.546875 -0.234375 -0.8125 -0.59375q-0.25 -0.375 -0.34375 -1.0q-0.09375 -0.453125 -0.09375 -1.8125l0 -4.21875l-1.171875 0l0 -2.03125l1.171875 0l0 -1.921875l2.578125 -1.5l0 3.421875l1.75 0zm3.572052 9.671875l-3.0625 -9.671875l2.484375 0l1.8125 6.34375l1.671875 -6.34375l2.46875 0l1.609375 6.34375l1.859375 -6.34375l2.515625 0l-3.109375 9.671875l-2.453125 0l-1.671875 -6.21875l-1.640625 6.21875l-2.484375 0zm12.120789 -4.96875q0 -1.28125 0.625 -2.46875q0.625 -1.203125 1.78125 -1.828125q1.15625 -0.625 2.578125 -0.625q2.1875 0 3.59375 1.421875q1.40625 1.421875 1.40625 3.609375q0 2.1875 -1.421875 3.640625q-1.421875 1.4375 -3.5625 1.4375q-1.328125 0 -2.546875 -0.59375q-1.203125 -0.609375 -1.828125 -1.765625q-0.625 -1.171875 -0.625 -2.828125zm2.625 0.125q0 1.453125 0.671875 2.21875q0.6875 0.75 1.6875 0.75q1.0 0 1.671875 -0.75q0.6875 -0.765625 0.6875 -2.234375q0 -1.421875 -0.6875 -2.1875q-0.671875 -0.765625 -1.671875 -0.765625q-1.0 0 -1.6875 0.765625q-0.671875 0.765625 -0.671875 2.203125zm11.817871 4.84375l-2.5625 0l0 -9.671875l2.375 0l0 1.375q0.609375 -0.984375 1.09375 -1.28125q0.484375 -0.3125 1.109375 -0.3125q0.875 0 1.6875 0.484375l-0.796875 2.234375q-0.640625 -0.421875 -1.203125 -0.421875q-0.53125 0 -0.90625 0.296875q-0.375 0.296875 -0.59375 1.078125q-0.203125 0.765625 -0.203125 3.234375l0 2.984375zm4.713379 0l0 -13.359375l2.5625 0l0 7.09375l3.0 -3.40625l3.140625 0l-3.296875 3.53125l3.53125 6.140625l-2.75 0l-2.4375 -4.34375l-1.1875 1.25l0 3.09375l-2.5625 0zm9.094482 0.234375l3.3125 -13.8125l1.921875 0l-3.34375 13.8125l-1.890625 0zm6.4957886 -0.234375l0 -13.359375l2.6875 0l0 13.359375l-2.6875 0zm14.042664 0l-2.5625 0l0 -4.9375q0 -1.5625 -0.171875 -2.015625q-0.15625 -0.46875 -0.53125 -0.71875q-0.359375 -0.265625 -0.875 -0.265625q-0.671875 0 -1.203125 0.375q-0.53125 0.359375 -0.734375 0.96875q-0.1875 0.59375 -0.1875 2.21875l0 4.375l-2.546875 0l0 -9.671875l2.375 0l0 1.421875q1.265625 -1.640625 3.1875 -1.640625q0.84375 0 1.546875 0.3125q0.703125 0.296875 1.0625 0.78125q0.359375 0.46875 0.5 1.078125q0.140625 0.59375 0.140625 1.703125l0 6.015625zm7.036621 -9.671875l0 2.03125l-1.75 0l0 3.90625q0 1.1875 0.046875 1.390625q0.046875 0.1875 0.21875 0.3125q0.1875 0.125 0.4375 0.125q0.359375 0 1.03125 -0.25l0.21875 2.0q-0.890625 0.375 -2.015625 0.375q-0.703125 0 -1.265625 -0.234375q-0.546875 -0.234375 -0.8125 -0.59375q-0.25 -0.375 -0.34375 -1.0q-0.09375 -0.453125 -0.09375 -1.8125l0 -4.21875l-1.171875 0l0 -2.03125l1.171875 0l0 -1.921875l2.578125 -1.5l0 3.421875l1.75 0zm7.3689575 6.59375l2.546875 0.421875q-0.484375 1.40625 -1.546875 2.140625q-1.0625 0.734375 -2.65625 0.734375q-2.515625 0 -3.734375 -1.65625q-0.953125 -1.3125 -0.953125 -3.328125q0 -2.40625 1.25 -3.765625q1.265625 -1.359375 3.1875 -1.359375q2.15625 0 3.40625 1.421875q1.25 1.421875 1.1875 4.375l-6.40625 0q0.03125 1.140625 0.609375 1.78125q0.59375 0.625 1.484375 0.625q0.59375 0 1.0 -0.328125q0.421875 -0.328125 0.625 -1.0625zm0.15625 -2.59375q-0.03125 -1.109375 -0.578125 -1.6875q-0.546875 -0.578125 -1.328125 -0.578125q-0.84375 0 -1.390625 0.609375q-0.546875 0.609375 -0.53125 1.65625l3.828125 0zm7.0787964 5.671875l-2.5625 0l0 -9.671875l2.375 0l0 1.375q0.609375 -0.984375 1.09375 -1.28125q0.484375 -0.3125 1.109375 -0.3125q0.875 0 1.6875 0.484375l-0.796875 2.234375q-0.640625 -0.421875 -1.203125 -0.421875q-0.53125 0 -0.90625 0.296875q-0.375 0.296875 -0.59375 1.078125q-0.203125 0.765625 -0.203125 3.234375l0 2.984375zm13.604065 0l-2.5625 0l0 -4.9375q0 -1.5625 -0.171875 -2.015625q-0.15625 -0.46875 -0.53125 -0.71875q-0.359375 -0.265625 -0.875 -0.265625q-0.671875 0 -1.203125 0.375q-0.53125 0.359375 -0.734375 0.96875q-0.1875 0.59375 -0.1875 2.21875l0 4.375l-2.546875 0l0 -9.671875l2.375 0l0 1.421875q1.265625 -1.640625 3.1875 -1.640625q0.84375 0 1.546875 0.3125q0.703125 0.296875 1.0625 0.78125q0.359375 0.46875 0.5 1.078125q0.140625 0.59375 0.140625 1.703125l0 6.015625zm8.19281 -3.078125l2.546875 0.421875q-0.484375 1.40625 -1.546875 2.140625q-1.0625 0.734375 -2.65625 0.734375q-2.515625 0 -3.734375 -1.65625q-0.953125 -1.3125 -0.953125 -3.328125q0 -2.40625 1.25 -3.765625q1.265625 -1.359375 3.1875 -1.359375q2.15625 0 3.40625 1.421875q1.25 1.421875 1.1875 4.375l-6.40625 0q0.03125 1.140625 0.609375 1.78125q0.59375 0.625 1.484375 0.625q0.59375 0 1.0 -0.328125q0.421875 -0.328125 0.625 -1.0625zm0.15625 -2.59375q-0.03125 -1.109375 -0.578125 -1.6875q-0.546875 -0.578125 -1.328125 -0.578125q-0.84375 0 -1.390625 0.609375q-0.546875 0.609375 -0.53125 1.65625l3.828125 0zm9.063232 -4.0l0 2.03125l-1.75 0l0 3.90625q0 1.1875 0.046875 1.390625q0.046875 0.1875 0.21875 0.3125q0.1875 0.125 0.4375 0.125q0.359375 0 1.03125 -0.25l0.21875 2.0q-0.890625 0.375 -2.015625 0.375q-0.703125 0 -1.265625 -0.234375q-0.546875 -0.234375 -0.8125 -0.59375q-0.25 -0.375 -0.34375 -1.0q-0.09375 -0.453125 -0.09375 -1.8125l0 -4.21875l-1.171875 0l0 -2.03125l1.171875 0l0 -1.921875l2.578125 -1.5l0 3.421875l1.75 0z" fill-rule="nonzero"/><path fill="#000000" fill-opacity="0.0" d="m546.2848 347.87927l0 -89.543304" fill-rule="evenodd"/><path stroke="#000000" stroke-width="1.0" stroke-linejoin="round" stroke-linecap="butt" d="m546.2848 347.87927l0 -83.543304" fill-rule="evenodd"/><path fill="#000000" stroke="#000000" stroke-width="1.0" stroke-linecap="butt" d="m547.9365 264.33597l-1.6517334 -4.5381165l-1.6517334 4.5381165z" fill-rule="evenodd"/><path fill="#000000" fill-opacity="0.0" d="m546.28485 258.35022l0 89.543304" fill-rule="evenodd"/><path stroke="#000000" stroke-width="1.0" stroke-linejoin="round" stroke-linecap="butt" d="m546.2848 258.35022l0 83.543274" fill-rule="evenodd"/><path fill="#000000" stroke="#000000" stroke-width="1.0" stroke-linecap="butt" d="m544.63306 341.8935l1.6517334 4.538086l1.6517334 -4.538086z" fill-rule="evenodd"/><path fill="#d9ead3" d="m725.1417 287.88385l0 0c0 -6.188568 5.0168457 -11.205383 11.205383 -11.205383l105.99872 0c2.9718628 0 5.8219604 1.1805725 7.923401 3.2819824c2.1013794 2.10141 3.2819824 4.951538 3.2819824 7.923401l0 41.55777c0 6.1885376 -5.0168457 11.205353 -11.205383 11.205353l-105.99872 0c-6.1885376 0 -11.205383 -5.016815 -11.205383 -11.205353z" fill-rule="evenodd"/><path stroke="#000000" stroke-width="1.0" stroke-linejoin="round" stroke-linecap="butt" d="m725.1417 287.88385l0 0c0 -6.188568 5.0168457 -11.205383 11.205383 -11.205383l105.99872 0c2.9718628 0 5.8219604 1.1805725 7.923401 3.2819824c2.1013794 2.10141 3.2819824 4.951538 3.2819824 7.923401l0 41.55777c0 6.1885376 -5.0168457 11.205353 -11.205383 11.205353l-105.99872 0c-6.1885376 0 -11.205383 -5.016815 -11.205383 -11.205353z" fill-rule="evenodd"/><path fill="#000000" d="m771.48694 314.39523q-0.921875 0.765625 -1.765625 1.09375q-0.828125 0.3125 -1.796875 0.3125q-1.59375 0 -2.453125 -0.78125q-0.859375 -0.78125 -0.859375 -1.984375q0 -0.71875 0.328125 -1.296875q0.328125 -0.59375 0.84375 -0.9375q0.53125 -0.359375 1.1875 -0.546875q0.46875 -0.125 1.453125 -0.25q1.984375 -0.234375 2.921875 -0.5625q0.015625 -0.34375 0.015625 -0.421875q0 -1.0 -0.46875 -1.421875q-0.625 -0.546875 -1.875 -0.546875q-1.15625 0 -1.703125 0.40625q-0.546875 0.40625 -0.8125 1.421875l-1.609375 -0.21875q0.21875 -1.015625 0.71875 -1.640625q0.5 -0.640625 1.453125 -0.984375q0.953125 -0.34375 2.1875 -0.34375q1.25 0 2.015625 0.296875q0.78125 0.28125 1.140625 0.734375q0.375 0.4375 0.515625 1.109375q0.078125 0.421875 0.078125 1.515625l0 2.1875q0 2.28125 0.109375 2.890625q0.109375 0.59375 0.40625 1.15625l-1.703125 0q-0.265625 -0.515625 -0.328125 -1.1875zm-0.140625 -3.671875q-0.890625 0.375 -2.671875 0.625q-1.015625 0.140625 -1.4375 0.328125q-0.421875 0.1875 -0.65625 0.53125q-0.21875 0.34375 -0.21875 0.78125q0 0.65625 0.5 1.09375q0.5 0.4375 1.453125 0.4375q0.9375 0 1.671875 -0.40625q0.75 -0.421875 1.09375 -1.140625q0.265625 -0.5625 0.265625 -1.640625l0 -0.609375zm10.469482 4.859375l0 -1.21875q-0.90625 1.4375 -2.703125 1.4375q-1.15625 0 -2.125 -0.640625q-0.96875 -0.640625 -1.5 -1.78125q-0.53125 -1.140625 -0.53125 -2.625q0 -1.453125 0.484375 -2.625q0.484375 -1.1875 1.4375 -1.8125q0.96875 -0.625 2.171875 -0.625q0.875 0 1.546875 0.375q0.6875 0.359375 1.109375 0.953125l0 -4.796875l1.640625 0l0 13.359375l-1.53125 0zm-5.171875 -4.828125q0 1.859375 0.78125 2.78125q0.78125 0.921875 1.84375 0.921875q1.078125 0 1.828125 -0.875q0.75 -0.890625 0.75 -2.6875q0 -1.984375 -0.765625 -2.90625q-0.765625 -0.9375 -1.890625 -0.9375q-1.078125 0 -1.8125 0.890625q-0.734375 0.890625 -0.734375 2.8125zm9.281982 4.828125l0 -9.671875l1.46875 0l0 1.359375q0.453125 -0.71875 1.203125 -1.140625q0.765625 -0.4375 1.71875 -0.4375q1.078125 0 1.765625 0.453125q0.6875 0.4375 0.96875 1.234375q1.15625 -1.6875 2.984375 -1.6875q1.453125 0 2.21875 0.796875q0.78125 0.796875 0.78125 2.453125l0 6.640625l-1.640625 0l0 -6.09375q0 -0.984375 -0.15625 -1.40625q-0.15625 -0.4375 -0.578125 -0.703125q-0.421875 -0.265625 -0.984375 -0.265625q-1.015625 0 -1.6875 0.6875q-0.671875 0.671875 -0.671875 2.15625l0 5.625l-1.640625 0l0 -6.28125q0 -1.09375 -0.40625 -1.640625q-0.40625 -0.546875 -1.3125 -0.546875q-0.6875 0 -1.28125 0.359375q-0.59375 0.359375 -0.859375 1.0625q-0.25 0.703125 -0.25 2.03125l0 5.015625l-1.640625 0zm15.5407715 -11.46875l0 -1.890625l1.640625 0l0 1.890625l-1.640625 0zm0 11.46875l0 -9.671875l1.640625 0l0 9.671875l-1.640625 0zm4.1448364 0l0 -9.671875l1.46875 0l0 1.375q1.0625 -1.59375 3.078125 -1.59375q0.875 0 1.609375 0.3125q0.734375 0.3125 1.09375 0.828125q0.375 0.5 0.515625 1.203125q0.09375 0.453125 0.09375 1.59375l0 5.953125l-1.640625 0l0 -5.890625q0 -1.0 -0.203125 -1.484375q-0.1875 -0.5 -0.671875 -0.796875q-0.484375 -0.296875 -1.140625 -0.296875q-1.046875 0 -1.8125 0.671875q-0.75 0.65625 -0.75 2.515625l0 5.28125l-1.640625 0z" fill-rule="nonzero"/><path fill="#000000" fill-opacity="0.0" d="m789.34644 276.67847l-111.212585 -68.66141" fill-rule="evenodd"/><path stroke="#000000" stroke-width="1.0" stroke-linejoin="round" stroke-linecap="butt" d="m789.34644 276.67847l-106.10718 -65.5094" fill-rule="evenodd"/><path fill="#000000" stroke="#000000" stroke-width="1.0" stroke-linecap="butt" d="m684.10693 209.76361l-4.729126 -0.9785614l2.9937134 3.7894592z" fill-rule="evenodd"/><path fill="#000000" fill-opacity="0.0" d="m678.14215 208.01228l111.21265 68.66142" fill-rule="evenodd"/><path stroke="#000000" stroke-width="1.0" stroke-linejoin="round" stroke-linecap="butt" d="m678.1422 208.01228l106.10712 65.509415" fill-rule="evenodd"/><path fill="#000000" stroke="#000000" stroke-width="1.0" stroke-linecap="butt" d="m783.38165 274.92715l4.729187 0.97854614l-2.9937744 -3.7894592z" fill-rule="evenodd"/><path fill="#000000" fill-opacity="0.0" d="m635.71783 429.51706l153.63782 -88.8819" fill-rule="evenodd"/><path stroke="#000000" stroke-width="1.0" stroke-linejoin="round" stroke-linecap="butt" d="m635.71783 429.51706l148.44421 -85.87735" fill-rule="evenodd"/><path fill="#000000" stroke="#000000" stroke-width="1.0" stroke-linecap="butt" d="m784.98926 345.06943l3.1009521 -3.7022095l-4.755188 0.84277344z" fill-rule="evenodd"/><path fill="#000000" fill-opacity="0.0" d="m789.34644 340.64697l-153.63776 88.8819" fill-rule="evenodd"/><path stroke="#000000" stroke-width="1.0" stroke-linejoin="round" stroke-linecap="butt" d="m789.34644 340.64697l-148.44427 85.87735" fill-rule="evenodd"/><path fill="#000000" stroke="#000000" stroke-width="1.0" stroke-linecap="butt" d="m640.0751 425.0946l-3.1010132 3.7022095l4.755249 -0.84277344z" fill-rule="evenodd"/><path fill="#fce5cd" d="m327.06168 22.62531l0 0c0 -6.188551 5.016815 -11.205363 11.205353 -11.205363l105.99875 0c2.9718323 0 5.8219604 1.1805611 7.9233704 3.2819748c2.10141 2.1014128 3.2819824 4.951541 3.2819824 7.9233885l0 41.557777c0 6.188553 -5.016815 11.20536 -11.205353 11.20536l-105.99875 0c-6.1885376 0 -11.205353 -5.0168076 -11.205353 -11.20536z" fill-rule="evenodd"/><path stroke="#000000" stroke-width="1.0" stroke-linejoin="round" stroke-linecap="butt" d="m327.06168 22.62531l0 0c0 -6.188551 5.016815 -11.205363 11.205353 -11.205363l105.99875 0c2.9718323 0 5.8219604 1.1805611 7.9233704 3.2819748c2.10141 2.1014128 3.2819824 4.951541 3.2819824 7.9233885l0 41.557777c0 6.188553 -5.016815 11.20536 -11.205353 11.20536l-105.99875 0c-6.1885376 0 -11.205353 -5.0168076 -11.205353 -11.20536z" fill-rule="evenodd"/><path fill="#000000" d="m373.2596 48.855446l0.234375 1.453125q-0.6875 0.140625 -1.234375 0.140625q-0.890625 0 -1.390625 -0.28125q-0.484375 -0.28125 -0.6875 -0.734375q-0.203125 -0.46875 -0.203125 -1.9375l0 -5.578125l-1.203125 0l0 -1.265625l1.203125 0l0 -2.390625l1.625 -0.984375l0 3.375l1.65625 0l0 1.265625l-1.65625 0l0 5.671875q0 0.6875 0.078125 0.890625q0.09375 0.203125 0.28125 0.328125q0.203125 0.109375 0.578125 0.109375q0.265625 0 0.71875 -0.0625zm7.917694 0.28125q-0.921875 0.765625 -1.765625 1.09375q-0.828125 0.3125 -1.796875 0.3125q-1.59375 0 -2.453125 -0.78125q-0.859375 -0.78125 -0.859375 -1.984375q0 -0.71875 0.328125 -1.296875q0.328125 -0.59375 0.84375 -0.9375q0.53125 -0.359375 1.1875 -0.546875q0.46875 -0.125 1.453125 -0.25q1.984375 -0.234375 2.921875 -0.5625q0.015625 -0.34375 0.015625 -0.421875q0 -1.0 -0.46875 -1.421875q-0.625 -0.546875 -1.875 -0.546875q-1.15625 0 -1.703125 0.40625q-0.546875 0.40625 -0.8125 1.421875l-1.609375 -0.21875q0.21875 -1.015625 0.71875 -1.640625q0.5 -0.640625 1.453125 -0.984375q0.953125 -0.34375 2.1875 -0.34375q1.25 0 2.015625 0.296875q0.78125 0.28125 1.140625 0.734375q0.375 0.4375 0.515625 1.109375q0.078125 0.421875 0.078125 1.515625l0 2.1875q0 2.28125 0.109375 2.890625q0.109375 0.59375 0.40625 1.15625l-1.703125 0q-0.265625 -0.515625 -0.328125 -1.1875zm-0.140625 -3.671875q-0.890625 0.375 -2.671875 0.625q-1.015625 0.140625 -1.4375 0.328125q-0.421875 0.1875 -0.65625 0.53125q-0.21875 0.34375 -0.21875 0.78125q0 0.65625 0.5 1.09375q0.5 0.4375 1.453125 0.4375q0.9375 0 1.671875 -0.40625q0.75 -0.421875 1.09375 -1.140625q0.265625 -0.5625 0.265625 -1.640625l0 -0.609375zm5.703827 4.859375l-1.515625 0l0 -13.359375l1.640625 0l0 4.765625q1.046875 -1.296875 2.65625 -1.296875q0.890625 0 1.6875 0.359375q0.796875 0.359375 1.3125 1.015625q0.515625 0.640625 0.796875 1.5625q0.296875 0.921875 0.296875 1.96875q0 2.484375 -1.234375 3.84375q-1.21875 1.359375 -2.953125 1.359375q-1.703125 0 -2.6875 -1.4375l0 1.21875zm-0.015625 -4.90625q0 1.734375 0.484375 2.515625q0.765625 1.265625 2.09375 1.265625q1.078125 0 1.859375 -0.9375q0.78125 -0.9375 0.78125 -2.78125q0 -1.890625 -0.75 -2.796875q-0.75 -0.90625 -1.828125 -0.90625q-1.0625 0 -1.859375 0.9375q-0.78125 0.9375 -0.78125 2.703125zm8.844482 4.90625l0 -13.359375l1.640625 0l0 13.359375l-1.640625 0zm10.816681 -3.109375l1.6875 0.203125q-0.40625 1.484375 -1.484375 2.3125q-1.078125 0.8125 -2.765625 0.8125q-2.125 0 -3.375 -1.296875q-1.234375 -1.3125 -1.234375 -3.671875q0 -2.453125 1.25 -3.796875q1.265625 -1.34375 3.265625 -1.34375q1.9375 0 3.15625 1.328125q1.234375 1.3125 1.234375 3.703125q0 0.15625 0 0.4375l-7.21875 0q0.09375 1.59375 0.90625 2.453125q0.8125 0.84375 2.015625 0.84375q0.90625 0 1.546875 -0.46875q0.640625 -0.484375 1.015625 -1.515625zm-5.390625 -2.65625l5.40625 0q-0.109375 -1.21875 -0.625 -1.828125q-0.78125 -0.953125 -2.03125 -0.953125q-1.125 0 -1.90625 0.765625q-0.765625 0.75 -0.84375 2.015625zm12.719482 4.296875l0.234375 1.453125q-0.6875 0.140625 -1.234375 0.140625q-0.890625 0 -1.390625 -0.28125q-0.484375 -0.28125 -0.6875 -0.734375q-0.203125 -0.46875 -0.203125 -1.9375l0 -5.578125l-1.203125 0l0 -1.265625l1.203125 0l0 -2.390625l1.625 -0.984375l0 3.375l1.65625 0l0 1.265625l-1.65625 0l0 5.671875q0 0.6875 0.078125 0.890625q0.09375 0.203125 0.28125 0.328125q0.203125 0.109375 0.578125 0.109375q0.265625 0 0.71875 -0.0625z" fill-rule="nonzero"/><path fill="#fce5cd" d="m482.08005 22.62531l0 0c0 -6.188551 5.016815 -11.205363 11.205353 -11.205363l105.99872 0c2.9718628 0 5.8220215 1.1805611 7.923401 3.2819748c2.1014404 2.1014128 3.2819824 4.951541 3.2819824 7.9233885l0 41.557777c0 6.188553 -5.0167847 11.20536 -11.205383 11.20536l-105.99872 0c-6.1885376 0 -11.205353 -5.0168076 -11.205353 -11.20536z" fill-rule="evenodd"/><path stroke="#000000" stroke-width="1.0" stroke-linejoin="round" stroke-linecap="butt" d="m482.08005 22.62531l0 0c0 -6.188551 5.016815 -11.205363 11.205353 -11.205363l105.99872 0c2.9718628 0 5.8220215 1.1805611 7.923401 3.2819748c2.1014404 2.1014128 3.2819824 4.951541 3.2819824 7.9233885l0 41.557777c0 6.188553 -5.0167847 11.20536 -11.205383 11.20536l-105.99872 0c-6.1885376 0 -11.205353 -5.0168076 -11.205353 -11.20536z" fill-rule="evenodd"/><path fill="#000000" d="m508.63525 50.324196l0 -13.359375l1.640625 0l0 7.625l3.890625 -3.9375l2.109375 0l-3.6875 3.59375l4.0625 6.078125l-2.015625 0l-3.203125 -4.953125l-1.15625 1.125l0 3.828125l-1.640625 0zm8.71875 -4.84375q0 -2.6875 1.484375 -3.96875q1.25 -1.078125 3.046875 -1.078125q2.0 0 3.265625 1.3125q1.265625 1.296875 1.265625 3.609375q0 1.859375 -0.5625 2.9375q-0.5625 1.0625 -1.640625 1.65625q-1.0625 0.59375 -2.328125 0.59375q-2.03125 0 -3.28125 -1.296875q-1.25 -1.3125 -1.25 -3.765625zm1.6875 0q0 1.859375 0.796875 2.796875q0.8125 0.921875 2.046875 0.921875q1.21875 0 2.03125 -0.921875q0.8125 -0.9375 0.8125 -2.84375q0 -1.796875 -0.8125 -2.71875q-0.8125 -0.921875 -2.03125 -0.921875q-1.234375 0 -2.046875 0.921875q-0.796875 0.90625 -0.796875 2.765625zm9.297607 4.84375l0 -9.671875l1.46875 0l0 1.359375q0.453125 -0.71875 1.203125 -1.140625q0.765625 -0.4375 1.71875 -0.4375q1.078125 0 1.765625 0.453125q0.6875 0.4375 0.96875 1.234375q1.15625 -1.6875 2.984375 -1.6875q1.453125 0 2.21875 0.796875q0.78125 0.796875 0.78125 2.453125l0 6.640625l-1.640625 0l0 -6.09375q0 -0.984375 -0.15625 -1.40625q-0.15625 -0.4375 -0.578125 -0.703125q-0.421875 -0.265625 -0.984375 -0.265625q-1.015625 0 -1.6875 0.6875q-0.671875 0.671875 -0.671875 2.15625l0 5.625l-1.640625 0l0 -6.28125q0 -1.09375 -0.40625 -1.640625q-0.40625 -0.546875 -1.3125 -0.546875q-0.6875 0 -1.28125 0.359375q-0.59375 0.359375 -0.859375 1.0625q-0.25 0.703125 -0.25 2.03125l0 5.015625l-1.640625 0zm15.5407715 3.703125l0 -13.375l1.484375 0l0 1.25q0.53125 -0.734375 1.1875 -1.09375q0.671875 -0.375 1.625 -0.375q1.234375 0 2.171875 0.640625q0.953125 0.625 1.4375 1.796875q0.484375 1.15625 0.484375 2.546875q0 1.484375 -0.53125 2.671875q-0.53125 1.1875 -1.546875 1.828125q-1.015625 0.625 -2.140625 0.625q-0.8125 0 -1.46875 -0.34375q-0.65625 -0.34375 -1.0625 -0.875l0 4.703125l-1.640625 0zm1.484375 -8.484375q0 1.859375 0.75 2.765625q0.765625 0.890625 1.828125 0.890625q1.09375 0 1.875 -0.921875q0.78125 -0.9375 0.78125 -2.875q0 -1.84375 -0.765625 -2.765625q-0.75 -0.921875 -1.8125 -0.921875q-1.046875 0 -1.859375 0.984375q-0.796875 0.96875 -0.796875 2.84375zm15.219482 4.78125l0 -1.421875q-1.125 1.640625 -3.0625 1.640625q-0.859375 0 -1.609375 -0.328125q-0.734375 -0.328125 -1.09375 -0.828125q-0.359375 -0.5 -0.5 -1.21875q-0.109375 -0.46875 -0.109375 -1.53125l0 -5.984375l1.640625 0l0 5.359375q0 1.28125 0.109375 1.734375q0.15625 0.640625 0.65625 1.015625q0.5 0.375 1.234375 0.375q0.734375 0 1.375 -0.375q0.65625 -0.390625 0.921875 -1.03125q0.265625 -0.65625 0.265625 -1.890625l0 -5.1875l1.640625 0l0 9.671875l-1.46875 0zm7.6257324 -1.46875l0.234375 1.453125q-0.6875 0.140625 -1.234375 0.140625q-0.890625 0 -1.390625 -0.28125q-0.484375 -0.28125 -0.6875 -0.734375q-0.203125 -0.46875 -0.203125 -1.9375l0 -5.578125l-1.203125 0l0 -1.265625l1.203125 0l0 -2.390625l1.625 -0.984375l0 3.375l1.65625 0l0 1.265625l-1.65625 0l0 5.671875q0 0.6875 0.078125 0.890625q0.09375 0.203125 0.28125 0.328125q0.203125 0.109375 0.578125 0.109375q0.265625 0 0.71875 -0.0625zm8.230164 -1.640625l1.6875 0.203125q-0.40625 1.484375 -1.484375 2.3125q-1.078125 0.8125 -2.765625 0.8125q-2.125 0 -3.375 -1.296875q-1.234375 -1.3125 -1.234375 -3.671875q0 -2.453125 1.25 -3.796875q1.265625 -1.34375 3.265625 -1.34375q1.9375 0 3.15625 1.328125q1.234375 1.3125 1.234375 3.703125q0 0.15625 0 0.4375l-7.21875 0q0.09375 1.59375 0.90625 2.453125q0.8125 0.84375 2.015625 0.84375q0.90625 0 1.546875 -0.46875q0.640625 -0.484375 1.015625 -1.515625zm-5.390625 -2.65625l5.40625 0q-0.109375 -1.21875 -0.625 -1.828125q-0.78125 -0.953125 -2.03125 -0.953125q-1.125 0 -1.90625 0.765625q-0.765625 0.75 -0.84375 2.015625zm9.125732 5.765625l0 -9.671875l1.46875 0l0 1.46875q0.5625 -1.03125 1.03125 -1.359375q0.484375 -0.328125 1.0625 -0.328125q0.828125 0 1.6875 0.53125l-0.5625 1.515625q-0.609375 -0.359375 -1.203125 -0.359375q-0.546875 0 -0.96875 0.328125q-0.421875 0.328125 -0.609375 0.890625q-0.28125 0.875 -0.28125 1.921875l0 5.0625l-1.625 0z" fill-rule="nonzero"/><path fill="#fce5cd" d="m637.09845 22.62531l0 0c0 -6.188551 5.0167847 -11.205363 11.205322 -11.205363l105.99872 0c2.9718628 0 5.8220215 1.1805611 7.923401 3.2819748c2.1014404 2.1014128 3.2819824 4.951541 3.2819824 7.9233885l0 41.557777c0 6.188553 -5.0167847 11.20536 -11.205383 11.20536l-105.99872 0c-6.1885376 0 -11.205322 -5.0168076 -11.205322 -11.20536z" fill-rule="evenodd"/><path stroke="#000000" stroke-width="1.0" stroke-linejoin="round" stroke-linecap="butt" d="m637.09845 22.62531l0 0c0 -6.188551 5.0167847 -11.205363 11.205322 -11.205363l105.99872 0c2.9718628 0 5.8220215 1.1805611 7.923401 3.2819748c2.1014404 2.1014128 3.2819824 4.951541 3.2819824 7.9233885l0 41.557777c0 6.188553 -5.0167847 11.20536 -11.205383 11.20536l-105.99872 0c-6.1885376 0 -11.205322 -5.0168076 -11.205322 -11.20536z" fill-rule="evenodd"/><path fill="#000000" d="m652.62164 47.43357l1.625 -0.25q0.125 0.96875 0.75 1.5q0.625 0.515625 1.75 0.515625q1.125 0 1.671875 -0.453125q0.546875 -0.46875 0.546875 -1.09375q0 -0.546875 -0.484375 -0.875q-0.328125 -0.21875 -1.671875 -0.546875q-1.8125 -0.46875 -2.515625 -0.796875q-0.6875 -0.328125 -1.046875 -0.90625q-0.359375 -0.59375 -0.359375 -1.3125q0 -0.640625 0.296875 -1.1875q0.296875 -0.5625 0.8125 -0.921875q0.375 -0.28125 1.03125 -0.46875q0.671875 -0.203125 1.421875 -0.203125q1.140625 0 2.0 0.328125q0.859375 0.328125 1.265625 0.890625q0.421875 0.5625 0.578125 1.5l-1.609375 0.21875q-0.109375 -0.75 -0.640625 -1.171875q-0.515625 -0.421875 -1.46875 -0.421875q-1.140625 0 -1.625 0.375q-0.46875 0.375 -0.46875 0.875q0 0.3125 0.1875 0.578125q0.203125 0.265625 0.640625 0.4375q0.234375 0.09375 1.4375 0.421875q1.75 0.453125 2.4375 0.75q0.6875 0.296875 1.078125 0.859375q0.390625 0.5625 0.390625 1.40625q0 0.828125 -0.484375 1.546875q-0.46875 0.71875 -1.375 1.125q-0.90625 0.390625 -2.046875 0.390625q-1.875 0 -2.875 -0.78125q-0.984375 -0.78125 -1.25 -2.328125zm9.984375 2.890625l0 -9.671875l1.46875 0l0 1.359375q0.453125 -0.71875 1.203125 -1.140625q0.765625 -0.4375 1.71875 -0.4375q1.078125 0 1.765625 0.453125q0.6875 0.4375 0.96875 1.234375q1.15625 -1.6875 2.984375 -1.6875q1.453125 0 2.21875 0.796875q0.78125 0.796875 0.78125 2.453125l0 6.640625l-1.640625 0l0 -6.09375q0 -0.984375 -0.15625 -1.40625q-0.15625 -0.4375 -0.578125 -0.703125q-0.421875 -0.265625 -0.984375 -0.265625q-1.015625 0 -1.6875 0.6875q-0.671875 0.671875 -0.671875 2.15625l0 5.625l-1.640625 0l0 -6.28125q0 -1.09375 -0.40625 -1.640625q-0.40625 -0.546875 -1.3125 -0.546875q-0.6875 0 -1.28125 0.359375q-0.59375 0.359375 -0.859375 1.0625q-0.25 0.703125 -0.25 2.03125l0 5.015625l-1.640625 0zm21.853333 -1.1875q-0.921875 0.765625 -1.765625 1.09375q-0.828125 0.3125 -1.796875 0.3125q-1.59375 0 -2.453125 -0.78125q-0.859375 -0.78125 -0.859375 -1.984375q0 -0.71875 0.328125 -1.296875q0.328125 -0.59375 0.84375 -0.9375q0.53125 -0.359375 1.1875 -0.546875q0.46875 -0.125 1.453125 -0.25q1.984375 -0.234375 2.921875 -0.5625q0.015625 -0.34375 0.015625 -0.421875q0 -1.0 -0.46875 -1.421875q-0.625 -0.546875 -1.875 -0.546875q-1.15625 0 -1.703125 0.40625q-0.546875 0.40625 -0.8125 1.421875l-1.609375 -0.21875q0.21875 -1.015625 0.71875 -1.640625q0.5 -0.640625 1.453125 -0.984375q0.953125 -0.34375 2.1875 -0.34375q1.25 0 2.015625 0.296875q0.78125 0.28125 1.140625 0.734375q0.375 0.4375 0.515625 1.109375q0.078125 0.421875 0.078125 1.515625l0 2.1875q0 2.28125 0.109375 2.890625q0.109375 0.59375 0.40625 1.15625l-1.703125 0q-0.265625 -0.515625 -0.328125 -1.1875zm-0.140625 -3.671875q-0.890625 0.375 -2.671875 0.625q-1.015625 0.140625 -1.4375 0.328125q-0.421875 0.1875 -0.65625 0.53125q-0.21875 0.34375 -0.21875 0.78125q0 0.65625 0.5 1.09375q0.5 0.4375 1.453125 0.4375q0.9375 0 1.671875 -0.40625q0.75 -0.421875 1.09375 -1.140625q0.265625 -0.5625 0.265625 -1.640625l0 -0.609375zm4.1882324 4.859375l0 -9.671875l1.46875 0l0 1.46875q0.5625 -1.03125 1.03125 -1.359375q0.484375 -0.328125 1.0625 -0.328125q0.828125 0 1.6875 0.53125l-0.5625 1.515625q-0.609375 -0.359375 -1.203125 -0.359375q-0.546875 0 -0.96875 0.328125q-0.421875 0.328125 -0.609375 0.890625q-0.28125 0.875 -0.28125 1.921875l0 5.0625l-1.625 0zm9.8063965 -1.46875l0.234375 1.453125q-0.6875 0.140625 -1.234375 0.140625q-0.890625 0 -1.390625 -0.28125q-0.484375 -0.28125 -0.6875 -0.734375q-0.203125 -0.46875 -0.203125 -1.9375l0 -5.578125l-1.203125 0l0 -1.265625l1.203125 0l0 -2.390625l1.625 -0.984375l0 3.375l1.65625 0l0 1.265625l-1.65625 0l0 5.671875q0 0.6875 0.078125 0.890625q0.09375 0.203125 0.28125 0.328125q0.203125 0.109375 0.578125 0.109375q0.265625 0 0.71875 -0.0625zm1.6051636 5.171875l0 -13.375l1.484375 0l0 1.25q0.53125 -0.734375 1.1875 -1.09375q0.671875 -0.375 1.625 -0.375q1.234375 0 2.171875 0.640625q0.953125 0.625 1.4375 1.796875q0.484375 1.15625 0.484375 2.546875q0 1.484375 -0.53125 2.671875q-0.53125 1.1875 -1.546875 1.828125q-1.015625 0.625 -2.140625 0.625q-0.8125 0 -1.46875 -0.34375q-0.65625 -0.34375 -1.0625 -0.875l0 4.703125l-1.640625 0zm1.484375 -8.484375q0 1.859375 0.75 2.765625q0.765625 0.890625 1.828125 0.890625q1.09375 0 1.875 -0.921875q0.78125 -0.9375 0.78125 -2.875q0 -1.84375 -0.765625 -2.765625q-0.75 -0.921875 -1.8125 -0.921875q-1.046875 0 -1.859375 0.984375q-0.796875 0.96875 -0.796875 2.84375zm8.891357 4.78125l0 -13.359375l1.640625 0l0 4.796875q1.140625 -1.328125 2.890625 -1.328125q1.078125 0 1.859375 0.421875q0.796875 0.421875 1.140625 1.171875q0.34375 0.75 0.34375 2.171875l0 6.125l-1.640625 0l0 -6.125q0 -1.234375 -0.53125 -1.796875q-0.53125 -0.5625 -1.515625 -0.5625q-0.71875 0 -1.359375 0.390625q-0.640625 0.375 -0.921875 1.015625q-0.265625 0.640625 -0.265625 1.78125l0 5.296875l-1.640625 0zm9.766357 -4.84375q0 -2.6875 1.484375 -3.96875q1.25 -1.078125 3.046875 -1.078125q2.0 0 3.265625 1.3125q1.265625 1.296875 1.265625 3.609375q0 1.859375 -0.5625 2.9375q-0.5625 1.0625 -1.640625 1.65625q-1.0625 0.59375 -2.328125 0.59375q-2.03125 0 -3.28125 -1.296875q-1.25 -1.3125 -1.25 -3.765625zm1.6875 0q0 1.859375 0.796875 2.796875q0.8125 0.921875 2.046875 0.921875q1.21875 0 2.03125 -0.921875q0.8125 -0.9375 0.8125 -2.84375q0 -1.796875 -0.8125 -2.71875q-0.8125 -0.921875 -2.03125 -0.921875q-1.234375 0 -2.046875 0.921875q-0.796875 0.90625 -0.796875 2.765625zm9.297607 4.84375l0 -9.671875l1.46875 0l0 1.375q1.0625 -1.59375 3.078125 -1.59375q0.875 0 1.609375 0.3125q0.734375 0.3125 1.09375 0.828125q0.375 0.5 0.515625 1.203125q0.09375 0.453125 0.09375 1.59375l0 5.953125l-1.640625 0l0 -5.890625q0 -1.0 -0.203125 -1.484375q-0.1875 -0.5 -0.671875 -0.796875q-0.484375 -0.296875 -1.140625 -0.296875q-1.046875 0 -1.8125 0.671875q-0.75 0.65625 -0.75 2.515625l0 5.28125l-1.640625 0zm17.000671 -3.109375l1.6875 0.203125q-0.40625 1.484375 -1.484375 2.3125q-1.078125 0.8125 -2.765625 0.8125q-2.125 0 -3.375 -1.296875q-1.234375 -1.3125 -1.234375 -3.671875q0 -2.453125 1.25 -3.796875q1.265625 -1.34375 3.265625 -1.34375q1.9375 0 3.15625 1.328125q1.234375 1.3125 1.234375 3.703125q0 0.15625 0 0.4375l-7.21875 0q0.09375 1.59375 0.90625 2.453125q0.8125 0.84375 2.015625 0.84375q0.90625 0 1.546875 -0.46875q0.640625 -0.484375 1.015625 -1.515625zm-5.390625 -2.65625l5.40625 0q-0.109375 -1.21875 -0.625 -1.828125q-0.78125 -0.953125 -2.03125 -0.953125q-1.125 0 -1.90625 0.765625q-0.765625 0.75 -0.84375 2.015625z" fill-rule="nonzero"/><path fill="#000000" fill-opacity="0.0" d="m391.26642 75.38845l155.02362 87.937004" fill-rule="evenodd"/><path stroke="#000000" stroke-width="1.0" stroke-linejoin="round" stroke-linecap="butt" d="m391.26642 75.38845l149.80475 84.97663" fill-rule="evenodd"/><path fill="#000000" stroke="#000000" stroke-width="1.0" stroke-linecap="butt" d="m540.2562 161.80177l4.762207 0.8023834l-3.1322632 -3.6757507z" fill-rule="evenodd"/><path fill="#000000" fill-opacity="0.0" d="m546.2848 75.38845l0 87.937004" fill-rule="evenodd"/><path stroke="#000000" stroke-width="1.0" stroke-linejoin="round" stroke-linecap="butt" d="m546.2848 75.38845l0 81.937004" fill-rule="evenodd"/><path fill="#000000" stroke="#000000" stroke-width="1.0" stroke-linecap="butt" d="m544.63306 157.32545l1.6517334 4.538101l1.6517334 -4.538101z" fill-rule="evenodd"/><path fill="#000000" fill-opacity="0.0" d="m701.30316 75.38845l-155.02362 87.937004" fill-rule="evenodd"/><path stroke="#000000" stroke-width="1.0" stroke-linejoin="round" stroke-linecap="butt" d="m701.30316 75.38845l-149.80481 84.97663" fill-rule="evenodd"/><path fill="#000000" stroke="#000000" stroke-width="1.0" stroke-linecap="butt" d="m550.6834 158.9284l-3.1323242 3.6757507l4.762207 -0.8023834z" fill-rule="evenodd"/><path fill="#000000" fill-opacity="0.0" d="m546.28485 163.33545l155.02362 -87.93701" fill-rule="evenodd"/><path stroke="#000000" stroke-width="1.0" stroke-linejoin="round" stroke-linecap="butt" d="m546.2848 163.33545l149.80487 -84.97663" fill-rule="evenodd"/><path fill="#000000" stroke="#000000" stroke-width="1.0" stroke-linecap="butt" d="m696.9046 79.7955l3.1323242 -3.675766l-4.762207 0.8023987z" fill-rule="evenodd"/><path fill="#000000" fill-opacity="0.0" d="m546.28485 163.33545l0 -87.93701" fill-rule="evenodd"/><path stroke="#000000" stroke-width="1.0" stroke-linejoin="round" stroke-linecap="butt" d="m546.2848 163.33545l0 -81.937004" fill-rule="evenodd"/><path fill="#000000" stroke="#000000" stroke-width="1.0" stroke-linecap="butt" d="m547.9365 81.398445l-1.6517334 -4.538101l-1.6517334 4.538101z" fill-rule="evenodd"/><path fill="#000000" fill-opacity="0.0" d="m546.28485 163.33545l-155.02365 -87.93701" fill-rule="evenodd"/><path stroke="#000000" stroke-width="1.0" stroke-linejoin="round" stroke-linecap="butt" d="m546.2848 163.33545l-149.80475 -84.97663" fill-rule="evenodd"/><path fill="#000000" stroke="#000000" stroke-width="1.0" stroke-linecap="butt" d="m397.29498 76.922134l-4.762207 -0.8023987l3.1322937 3.675766z" fill-rule="evenodd"/></g></svg>